<svg xmlns="http://www.w3.org/2000/svg" viewBox="0 0 789.25 1080"><defs><style>.cls-1{fill:#07dfff;}.cls-2{fill:#1aafff;}.cls-3{fill:#64efff;}.cls-4{fill:#90f4ff;}.cls-5{fill:#15b9ff;}.cls-6{fill:#10c8ff;}.cls-7{fill:#0fcbff;}.cls-8{fill:#feffff;}.cls-9{fill:#694b74;}.cls-10{fill:#442c20;}.cls-11{fill:#51362a;}.cls-12{fill:#583d60;}.cls-13{fill:#fccb9b;}.cls-14{fill:#faba84;}.cls-15{fill:#fcbc85;}.cls-16{fill:#f9ba84;}.cls-17{fill:#f9aa8d;}.cls-18{fill:#3e281c;}.cls-19{fill:#553a2d;}.cls-20{fill:#f79661;}.cls-21{fill:#fcbd86;}.cls-22{fill:#f3f1f1;}.cls-23{fill:#f2f1f0;}</style></defs><g id="Layer_2" data-name="Layer 2"><g id="Layer_1-2" data-name="Layer 1"><path class="cls-1" d="M416.66.74a386.76,386.76,0,0,1,135.75,33,392,392,0,0,1,131,94.88q71.87,78.92,95.67,183.12a412.53,412.53,0,0,1,7.28,42.49,9.92,9.92,0,0,1,0,1.44H692.54c-2.09-11.06-3.63-22.26-6.36-33.16-15.25-60.84-46.28-112.3-93.28-153.8C542,123.73,482.28,99,414.57,93.77a292.19,292.19,0,0,0-54.2,1.11,285.48,285.48,0,0,0-62,13.46q-107,36.57-165.18,133.75A292.43,292.43,0,0,0,93.45,362c-.34,3.2-.78,6.39-1.18,9.59-3.6,0-7.19,0-10.79,0l-80.19,0c1.08-10.37,1.79-20.79,3.32-31.09a391.29,391.29,0,0,1,17.48-71.1,400,400,0,0,1,84.78-142C155.12,75.1,213.11,38.18,281.08,17.12A353.59,353.59,0,0,1,344.2,3.52C354,2.36,363.75,1.66,373.53.75c4.13,0,8.27-.06,12.4-.15a7.25,7.25,0,0,0,2-.6H403Z"/><path class="cls-2" d="M601.54,856.79C596,864.33,590.63,872,585,879.41q-49.43,65.54-104.46,126.41c-19.38,21.45-39.21,42.46-59.76,62.8-5.42,5.36-11.53,9.3-19.08,10.82-.31.06-.58.37-.87.56H388.61c-.09-.08-.17-.21-.27-.23-9.35-1.83-16.4-7.23-22.85-14q-40.53-42.39-78.37-87.17Q240.83,924,198.46,866.29c-2.26-3.09-4.41-6.26-6.61-9.39,1.55,0,3.11-.1,4.67-.1h405Z"/><path class="cls-3" d="M387.89,0a7.25,7.25,0,0,1-2,.6c-4.13.09-8.27.11-12.4.15l0-.75Z"/><path class="cls-4" d="M416.66.74,403,0h13.67C416.67.25,416.66.49,416.66.74Z"/><path class="cls-5" d="M601.54,856.79h-405c-1.56,0-3.12.07-4.67.1-5.33-7.37-10.75-14.68-16-22.13-31.14-44.47-60.33-90.18-86.1-138-8.12-15.07-15.66-30.45-23.45-45.69a21.21,21.21,0,0,1-.88-2.34l154.87,0c1.08,0,2.16,0,3.24,0,1.36-.08,2.61-.41,3.16-1.88l.71.16,12.89,8.28c1.18.8,2.32,1.67,3.55,2.38a290.8,290.8,0,0,0,35.8,17.56A297.92,297.92,0,0,0,372,696.79a259.07,259.07,0,0,0,34.13.4,352,352,0,0,0,35.35-3.7,297.38,297.38,0,0,0,86.43-28.2c2.12-1.06,4.12-2.38,6.17-3.57l8.69-4.77c1.16-.6,2.39-1.1,3.48-1.81,8-5.19,16-10.37,23.91-15.69,3.85-2.6,7.49-5.49,11.23-8.25.51.55,1,1.41,1.57,1.58a12.69,12.69,0,0,0,3.21.1H734c-2.3,5.27-4.49,10.58-6.9,15.78-20.71,44.68-44.87,87.44-71.27,129C639.36,803.54,622,828.85,604,853.73,603.24,854.79,602.37,855.77,601.54,856.79Z"/><path class="cls-6" d="M226.72,646.82c-.55,1.47-1.8,1.8-3.16,1.88-1.08.06-2.16,0-3.24,0l-154.87,0c-2.27-4.56-4.69-9.06-6.8-13.7q-12.16-26.7-22.44-54.18c-11.86-31.67-21.54-64-28-97.19a461.33,461.33,0,0,1-6.88-49.42A426.22,426.22,0,0,1,.19,386.84c.14-5.13.72-10.24,1.1-15.36l80.19,0c3.6,0,7.19,0,10.79,0,0,1.2,0,2.4-.06,3.59a299.77,299.77,0,0,0,2.28,61.72,300.6,300.6,0,0,0,60.34,142.95c5.51,7.09,11.06,14.2,17.19,20.74,7.35,7.83,15.33,15.08,23.08,22.53,1.79,1.72,3.71,3.31,5.65,4.84,5.09,4,10.15,8,15.36,11.85C219.52,642.28,223.17,644.48,226.72,646.82Z"/><path class="cls-7" d="M734,632.88H586.15a12.69,12.69,0,0,1-3.21-.1c-.62-.17-1.06-1-1.57-1.58a6,6,0,0,1,.71-.79,292.89,292.89,0,0,0,37.47-36.14c6.12-7,12.11-14.17,17.57-21.7,37.28-51.4,56.31-109,57.85-172.42.37-14.88-.82-29.69-2.43-44.47h93.83c.72,7.38,1.64,14.76,2.11,22.16a388.7,388.7,0,0,1,0,48.51,514.82,514.82,0,0,1-16.69,100.83,665.77,665.77,0,0,1-23.6,72c-4.23,10.82-8.86,21.48-13.33,32.2A13.66,13.66,0,0,1,734,632.88Z"/><path class="cls-8" d="M692.54,355.68c1.61,14.78,2.8,29.59,2.43,44.47-1.54,63.43-20.57,121-57.85,172.42-5.46,7.53-11.45,14.69-17.57,21.7a292.89,292.89,0,0,1-37.47,36.14,6,6,0,0,0-.71.79c-3.74,2.76-7.38,5.65-11.23,8.25-7.91,5.32-15.92,10.5-23.91,15.69-1.09.71-2.32,1.21-3.48,1.81-5-22.12-8.36-44.46-8.94-67.15-.43-16.35.68-32.55,6-48.2,2.55-2,5.4-3.61,7.59-5.9,6.62-6.89,11.45-15.08,16-23.43,12.13-22.47,21-46.25,27.8-70.81,9.72-35.11,15.3-70.75,12.73-107.34a170.77,170.77,0,0,0-8.79-44.69c-6.39-18.31-16.2-34.45-30.7-47.53a113.47,113.47,0,0,0-41.63-23.52,12.44,12.44,0,0,1-5.27-3.47c-6.15-6.38-12.1-13-18.81-18.79-37.09-31.8-80.06-46.29-128.86-42.51a181,181,0,0,0-87.36,30.32c-40.12,26.65-66.67,63.65-81.35,109.2a355.17,355.17,0,0,0-16.56,97.2,278.33,278.33,0,0,0,5.59,67.95c4.76,22.31,12.31,43.59,23.89,63.32,3.88,6.61,7.9,13.14,13.33,18.66a52,52,0,0,1,2.24,5.23c3.17,10.15,4.27,20.63,4.77,31.19a238.94,238.94,0,0,1-2.36,43c-1.22,9.13-3,18.19-4.55,27.28l-.71-.16c-3.55-2.34-7.2-4.54-10.61-7.05-5.21-3.83-10.27-7.85-15.36-11.85-1.94-1.53-3.86-3.12-5.65-4.84-7.75-7.45-15.73-14.7-23.08-22.53-6.13-6.54-11.68-13.65-17.19-20.74A301.79,301.79,0,0,1,92.21,375.14c.09-1.19,0-2.39.06-3.59.4-3.2.84-6.39,1.18-9.59a292.43,292.43,0,0,1,39.73-119.87q58-97.15,165.18-133.75a285.48,285.48,0,0,1,62-13.46,292.19,292.19,0,0,1,54.2-1.11c67.71,5.25,127.38,30,178.33,75,47,41.5,78,93,93.28,153.8C688.91,333.42,690.45,344.62,692.54,355.68Z"/><path class="cls-9" d="M534.06,661.72c-2,1.19-4,2.51-6.17,3.57a297.38,297.38,0,0,1-86.43,28.2,352,352,0,0,1-35.35,3.7,259.07,259.07,0,0,1-34.13-.4,297.92,297.92,0,0,1-92.31-21.59,290.8,290.8,0,0,1-35.8-17.56c-1.23-.71-2.37-1.58-3.55-2.38a41.14,41.14,0,0,1,3.7-3.87,221.49,221.49,0,0,1,22-16,201.22,201.22,0,0,1,33.23-16.9c9-3.51,18.28-6.34,27.44-9.46a56.35,56.35,0,0,0,12.17,11.52c8.84,6.25,18.34,11.2,29.16,13.06a119.66,119.66,0,0,0,15.16,2c3.86.15,7.78-.77,11.66-1.27,15.12-2,28.16-8.58,40-17.88,2.71-2.14,5.24-4.51,7.85-6.77a18.44,18.44,0,0,1,2.47.41,237.08,237.08,0,0,1,38.73,15.06,185.18,185.18,0,0,1,35.67,22.67C524.71,652.1,529.25,657.07,534.06,661.72Z"/><path class="cls-10" d="M534.06,661.72c-4.81-4.65-9.35-9.62-14.49-13.87a185.18,185.18,0,0,0-35.67-22.67,237.08,237.08,0,0,0-38.73-15.06,18.44,18.44,0,0,0-2.47-.41c-.5-.43-.94-1.14-1.51-1.26-6.17-1.28-12.35-2.47-18.54-3.69-.09-3.83-.18-7.65-.28-11.48q0-7.92.05-15.85c1.45-.48,2.88-1.08,4.37-1.43,28.48-6.78,52.24-21,70.09-44.54C509.07,515.4,517,497.25,522.49,478c.36-1.25.91-2.43,1.38-3.65,5.12,1.51,10.33,2.14,15.55.85,3.45-.85,6.79-2.18,10.18-3.3a60.81,60.81,0,0,1-.45,13.2c-1,6.21-1.19,12.54-2.26,18.73-2,11.46-4.41,22.86-6.62,34.28-.23,1.16-.33,2.34-.49,3.51-5.29,15.65-6.4,31.85-6,48.2.58,22.69,4,45,8.94,67.15Z"/><path class="cls-10" d="M326.71,609c-9.16,3.12-18.43,6-27.44,9.46A201.22,201.22,0,0,0,266,635.39a221.49,221.49,0,0,0-22,16,41.14,41.14,0,0,0-3.7,3.87L227.43,647c1.54-9.09,3.33-18.15,4.55-27.28a238.94,238.94,0,0,0,2.36-43c-.5-10.56-1.6-21-4.77-31.19a52,52,0,0,0-2.24-5.23c-.78-4.56-1.24-9.21-2.39-13.67-2.34-9.09-2.69-18.39-3.15-27.64-.33-6.53.27-13.12.68-19.68.11-1.67,1.06-3.29,1.62-4.94.8.17,1.62.32,2.42.51a31,31,0,0,0,17.5-.55,26.73,26.73,0,0,1,1.39,3.22,187.41,187.41,0,0,0,10.72,28.93c16.09,34,41.58,57.14,78,67.62,3.65,1.05,7.34,2,11.23,3v27.68a11.73,11.73,0,0,0-1.78.05c-5,.95-10,1.89-14.91,2.93C328,607.9,327.37,608.59,326.71,609Z"/><path class="cls-11" d="M224.09,474.33c-.56,1.65-1.51,3.27-1.62,4.94-.41,6.56-1,13.15-.68,19.68.46,9.25.81,18.55,3.15,27.64,1.15,4.46,1.61,9.11,2.39,13.67-5.43-5.52-9.45-12-13.33-18.66-11.58-19.73-19.13-41-23.89-63.32a278.33,278.33,0,0,1-5.59-67.95,355.17,355.17,0,0,1,16.56-97.2c14.68-45.55,41.23-82.55,81.35-109.2a181,181,0,0,1,87.36-30.32c48.8-3.78,91.77,10.71,128.86,42.51,6.71,5.75,12.66,12.41,18.81,18.79a12.44,12.44,0,0,0,5.27,3.47,113.47,113.47,0,0,1,41.63,23.52c14.5,13.08,24.31,29.22,30.7,47.53a170.77,170.77,0,0,1,8.79,44.69c2.57,36.59-3,72.23-12.73,107.34-6.8,24.56-15.67,48.34-27.8,70.81-4.5,8.35-9.33,16.54-16,23.43-2.19,2.29-5,3.95-7.59,5.9.16-1.17.26-2.35.49-3.51,2.21-11.42,4.61-22.82,6.62-34.28,1.07-6.19,1.28-12.52,2.26-18.73a60.81,60.81,0,0,0,.45-13.2c.33-11.76-1.37-23.15-6.39-33.88-2.66-5.68-6.22-10.75-11.42-14.48a42.48,42.48,0,0,0-4.29-3.22C513,412,501.91,400.25,492.76,386.5c-12.34-18.57-20.63-38.92-26.49-60.34-.79-2.87-1.53-5.75-2.39-9-1.78.58-3.35,1.08-4.9,1.6-30.36,10.18-61.09,19-92.54,25.09a297.06,297.06,0,0,1-44.18,5.53,69,69,0,0,0-13.13,1.74c-13,3.11-23.95,10.21-33.88,18.92C261.84,381.8,251.44,396,243.1,411.64c-2.63,5-4.71,10.2-7,15.31-.09.08-.21.15-.26.25-6.34,14.46-10.11,29.64-12.39,45.22C223.31,473,223.84,473.69,224.09,474.33Z"/><path class="cls-12" d="M326.71,609c.66-.44,1.26-1.13,2-1.28,5-1,9.94-2,14.91-2.93a11.73,11.73,0,0,1,1.78-.05,41.52,41.52,0,0,0,14.26,9.48c12.75,5.14,25.88,5.58,39.18,2.93,9.1-1.81,17.27-5.62,23.83-12.42,6.19,1.22,12.37,2.41,18.54,3.69.57.12,1,.83,1.51,1.26-2.61,2.26-5.14,4.63-7.85,6.77-11.83,9.3-24.87,15.93-40,17.88-3.88.5-7.8,1.42-11.66,1.27a119.66,119.66,0,0,1-15.16-2c-10.82-1.86-20.32-6.81-29.16-13.06A56.35,56.35,0,0,1,326.71,609Z"/><path class="cls-13" d="M422.65,604.76c-6.56,6.8-14.73,10.61-23.83,12.42-13.3,2.65-26.43,2.21-39.18-2.93a41.52,41.52,0,0,1-14.26-9.48V577.09c-3.89-1.05-7.58-2-11.23-3-36.45-10.48-61.94-33.63-78-67.62a187.41,187.41,0,0,1-10.72-28.93,26.73,26.73,0,0,0-1.39-3.22,25.91,25.91,0,0,0-.32-3.19c-3.14-14.06-6.12-28.14-6.95-42.58a4.93,4.93,0,0,0-.69-1.57c2.34-5.11,4.42-10.35,7-15.31C251.44,396,261.84,381.8,275.25,370c9.93-8.71,20.85-15.81,33.88-18.92a69,69,0,0,1,13.13-1.74,297.06,297.06,0,0,0,44.18-5.53c31.45-6.11,62.18-14.91,92.54-25.09,1.55-.52,3.12-1,4.9-1.6.86,3.27,1.6,6.15,2.39,9,5.86,21.42,14.15,41.77,26.49,60.34C501.91,400.25,513,412,527.5,420.3a42.48,42.48,0,0,1,4.29,3.22,45,45,0,0,1-.1,4.65q-.91,7-2,14c-1.08,6.77-2.18,13.54-3.38,20.3-.7,4-1.6,7.88-2.41,11.82-.47,1.22-1,2.4-1.38,3.65-5.53,19.27-13.42,37.42-25.61,53.48C479,555,455.27,569.22,426.79,576c-1.49.35-2.92,1-4.37,1.43q-7.08.87-14.14,1.72c-3.42.41-6.85,1.15-10.26,1.1-11.34-.18-22.71.86-34-.64-3.65-.49-7.3-.92-10.95-1.39-1.61-.21-3.22-.45-4.84-.67a5.33,5.33,0,0,0,2.3,2.07,129.74,129.74,0,0,0,54.27,13.65c5.86.06,11.73,0,17.59,0C422.47,597.11,422.56,600.93,422.65,604.76ZM290.46,457.2c-11.42-.67-22.12,9.68-22,22a22.1,22.1,0,0,0,21.8,22c12.87.15,22.2-10.82,22.27-21.9C312.56,467.4,302.14,456.59,290.46,457.2Zm189.63,43.92c12,.48,22.31-9.75,22.26-22.19a22.2,22.2,0,0,0-22-21.79c-13.45-.12-22,12-22.11,21.34C458.1,490.2,467.3,501.26,480.09,501.12ZM475,422.66a18.36,18.36,0,0,0-3-10.54,15.46,15.46,0,0,0-25.35-1.56,19.13,19.13,0,0,0-.21,23.62,15.31,15.31,0,0,0,23.3,1.42A18.14,18.14,0,0,0,475,422.66ZM327.48,422a17.35,17.35,0,0,0-4.08-11.34,15.4,15.4,0,0,0-24.3-.06,19.32,19.32,0,0,0-.13,23.64,15.35,15.35,0,0,0,22.55,2.12C325.52,432.66,327.49,428.05,327.48,422ZM457,368.11c-1.91,0-3.84-.15-5.73,0-5.17.47-10.18,1.53-14.58,4.51a11.58,11.58,0,0,0-5.39,8.12c-.56,4,1.43,5.56,5.17,4.2,8.77-3.19,17.74-5,27.09-3.45,3.77.63,7.46,1.7,11.22,2.41a31.11,31.11,0,0,0,6.38.65c2.51-.05,3.79-1.73,3-4.09a14.83,14.83,0,0,0-2.84-4.89c-2.41-2.77-5.71-4.3-9.14-5.45A42.07,42.07,0,0,0,457,368.11ZM336.72,381.56a9.45,9.45,0,0,0-2.87-6.76,19.1,19.1,0,0,0-9.25-5.25c-6.89-1.95-13.93-2-21-1.13a34,34,0,0,0-12.6,3.87c-2.88,1.6-5.37,3.63-6.73,6.74-1.54,3.56-.25,5.71,3.61,5.56a38.71,38.71,0,0,0,7.74-1.27c7.36-1.85,14.77-3.27,22.34-1.79,4.79,1,9.5,2.34,14.21,3.68,3,.85,4.29.1,4.54-2.94C336.74,382,336.72,381.79,336.72,381.56Zm22,96.25a7.49,7.49,0,0,0,.48,5.53c2.95,6.64,8.45,10,15.2,11.19a67.35,67.35,0,0,0,13.54.76c7.4-.22,14.12-2.34,18.95-8.49,2.15-2.74,3.23-5.71,2-9.68a34.13,34.13,0,0,0-4.1,1.53c-4.68,2.47-9.52,4.67-14.74,5.42a47,47,0,0,1-12.09.08,34.7,34.7,0,0,1-13.9-5.33C362.52,477.86,360.83,476.69,358.71,477.81Zm65.75,37c-3.6,1.18-6.86,2.19-10.08,3.32-9.78,3.45-19.92,4.85-30.22,5.24-2.12.08-4.27-.57-6.4-.55a55.43,55.43,0,0,1-14.85-2.11c-5.19-1.4-10.32-3-15.46-4.62-1.34-.41-2.62-1-4,0,1.88,4.65,6,6.24,9.88,8,6.77,3,14.08,3.89,21.31,4.28,9.89.54,19.84.54,29.69-1.27a46.47,46.47,0,0,0,15.44-5.55C422.08,520.12,424.28,518.51,424.46,514.79Zm-31.85,21.14c-3.12.68-6,1.79-8.83,1.77s-5.61-1.19-8.74-1.94c.83,3.38,2.66,5.24,5.65,5.61a30,30,0,0,0,6.43,0C390.47,541.11,392.29,539.25,392.61,535.93Z"/><path class="cls-14" d="M523.87,474.33c.81-3.94,1.71-7.86,2.41-11.82,1.2-6.76,2.3-13.53,3.38-20.3q1.11-7,2-14a45,45,0,0,0,.1-4.65c5.2,3.73,8.76,8.8,11.42,14.48,5,10.73,6.72,22.12,6.39,33.88-3.39,1.12-6.73,2.45-10.18,3.3C534.2,476.47,529,475.84,523.87,474.33Z"/><path class="cls-15" d="M422.37,593.28c-5.86,0-11.73.05-17.59,0a129.74,129.74,0,0,1-54.27-13.65,5.33,5.33,0,0,1-2.3-2.07c1.62.22,3.23.46,4.84.67,3.65.47,7.3.9,10.95,1.39,11.31,1.5,22.68.46,34,.64,3.41,0,6.84-.69,10.26-1.1q7.07-.84,14.14-1.72Q422.39,585.37,422.37,593.28Z"/><path class="cls-16" d="M236.05,427a4.93,4.93,0,0,1,.69,1.57c.83,14.44,3.81,28.52,6.95,42.58a25.91,25.91,0,0,1,.32,3.19,31,31,0,0,1-17.5.55c-.8-.19-1.62-.34-2.42-.51-.25-.64-.78-1.32-.69-1.91,2.28-15.58,6-30.76,12.39-45.22C235.84,427.1,236,427,236.05,427Z"/><path class="cls-17" d="M290.46,457.2c11.68-.61,22.1,10.2,22,22.07-.07,11.08-9.4,22.05-22.27,21.9a22.1,22.1,0,0,1-21.8-22C268.34,466.88,279,456.53,290.46,457.2Z"/><path class="cls-17" d="M480.09,501.12c-12.79.14-22-10.92-21.85-22.64.1-9.36,8.66-21.46,22.11-21.34a22.2,22.2,0,0,1,22,21.79C502.4,491.37,492.07,501.6,480.09,501.12Z"/><path class="cls-18" d="M475,422.66a18.14,18.14,0,0,1-5.26,12.94,15.31,15.31,0,0,1-23.3-1.42,19.13,19.13,0,0,1,.21-23.62A15.46,15.46,0,0,1,472,412.12,18.36,18.36,0,0,1,475,422.66ZM456.7,414.8a5,5,0,1,0-5.19,4.86A5.19,5.19,0,0,0,456.7,414.8Z"/><path class="cls-18" d="M327.48,422c0,6.07-2,10.68-6,14.36A15.35,15.35,0,0,1,299,434.22a19.32,19.32,0,0,1,.13-23.64,15.4,15.4,0,0,1,24.3.06A17.35,17.35,0,0,1,327.48,422Zm-23.22-12.26a5,5,0,1,0,.05,9.93,5,5,0,0,0,4.81-4.83A5,5,0,0,0,304.26,409.72Z"/><path class="cls-19" d="M457,368.11a42.07,42.07,0,0,1,15.19,2c3.43,1.15,6.73,2.68,9.14,5.45a14.83,14.83,0,0,1,2.84,4.89c.78,2.36-.5,4-3,4.09a31.11,31.11,0,0,1-6.38-.65c-3.76-.71-7.45-1.78-11.22-2.41-9.35-1.56-18.32.26-27.09,3.45-3.74,1.36-5.73-.2-5.17-4.2a11.58,11.58,0,0,1,5.39-8.12c4.4-3,9.41-4,14.58-4.51C453.13,368,455.06,368.11,457,368.11Z"/><path class="cls-19" d="M336.72,381.56c0,.23,0,.48,0,.71-.25,3-1.58,3.79-4.54,2.94-4.71-1.34-9.42-2.73-14.21-3.68-7.57-1.48-15-.06-22.34,1.79a38.71,38.71,0,0,1-7.74,1.27c-3.86.15-5.15-2-3.61-5.56,1.36-3.11,3.85-5.14,6.73-6.74a34,34,0,0,1,12.6-3.87c7.06-.84,14.1-.82,21,1.13a19.1,19.1,0,0,1,9.25,5.25A9.45,9.45,0,0,1,336.72,381.56Z"/><path class="cls-15" d="M358.71,477.81c2.12-1.12,3.81.05,5.38,1a34.7,34.7,0,0,0,13.9,5.33,47,47,0,0,0,12.09-.08c5.22-.75,10.06-2.95,14.74-5.42a34.13,34.13,0,0,1,4.1-1.53c1.19,4,.11,6.94-2,9.68-4.83,6.15-11.55,8.27-18.95,8.49a67.35,67.35,0,0,1-13.54-.76c-6.75-1.19-12.25-4.55-15.2-11.19A7.49,7.49,0,0,1,358.71,477.81Z"/><path class="cls-20" d="M424.46,514.79c-.18,3.72-2.38,5.33-4.72,6.71a46.47,46.47,0,0,1-15.44,5.55c-9.85,1.81-19.8,1.81-29.69,1.27-7.23-.39-14.54-1.27-21.31-4.28-3.9-1.74-8-3.33-9.88-8,1.41-1,2.69-.4,4,0,5.14,1.59,10.27,3.22,15.46,4.62a55.43,55.43,0,0,0,14.85,2.11c2.13,0,4.28.63,6.4.55,10.3-.39,20.44-1.79,30.22-5.24C417.6,517,420.86,516,424.46,514.79Z"/><path class="cls-21" d="M392.61,535.93c-.32,3.32-2.14,5.18-5.49,5.46a30,30,0,0,1-6.43,0c-3-.37-4.82-2.23-5.65-5.61,3.13.75,5.93,1.92,8.74,1.94S389.49,536.61,392.61,535.93Z"/><path class="cls-22" d="M456.7,414.8a5.19,5.19,0,0,1-5.19,4.86,5,5,0,1,1,5.19-4.86Z"/><path class="cls-23" d="M304.26,409.72a5,5,0,0,1,4.86,5.1,5,5,0,0,1-4.81,4.83,5,5,0,1,1-.05-9.93Z"/></g></g></svg>