<svg xmlns="http://www.w3.org/2000/svg" viewBox="0 0 789.26 1080"><defs><style>.cls-1{fill:#ffd602;}.cls-2{fill:#ffa001;}.cls-3{fill:#cfcdc8;}.cls-4{fill:#ffac01;}.cls-5{fill:#ffbd01;}.cls-6{fill:#ffbe01;}.cls-7{fill:#fffffe;}.cls-8{fill:#1ca9ff;}.cls-9{fill:#ebefef;}.cls-10{fill:#0bd8fe;}.cls-11{fill:#12c2fe;}.cls-12{fill:#11c5fe;}.cls-13{fill:#1bb0fe;}.cls-14{fill:#09ddfe;}.cls-15{fill:#0eccff;}.cls-16{fill:#0cd1ff;}.cls-17{fill:#16bbfe;}.cls-18{fill:#dbe4e7;}.cls-19{fill:#17b5ff;}.cls-20{fill:#f98f05;}.cls-21{fill:#0cd5fe;}.cls-22{fill:#febc02;}.cls-23{fill:#e79e0c;}.cls-24{fill:#feae01;}.cls-25{fill:#dcae13;}.cls-26{fill:#e4c90f;}.cls-27{fill:#ffca01;}.cls-28{fill:#ffd901;}</style></defs><g id="Layer_2" data-name="Layer 2"><g id="Layer_1-2" data-name="Layer 1"><path class="cls-1" d="M409.92,0A21.73,21.73,0,0,0,413,.59,383.18,383.18,0,0,1,526.35,23.2a388.93,388.93,0,0,1,132.91,81.07q79,73.18,111.43,176a406.39,406.39,0,0,1,15.38,70.47c.58,4.51.89,9.05,1.32,13.58H693c-.52-5.84-1-11.7-1.58-17.54A278.55,278.55,0,0,0,680,291.59c-17.16-55-47.48-101.41-91.2-138.84C539,110.06,481.05,86.54,415.65,81.52a289.84,289.84,0,0,0-53.5,1.09,284.73,284.73,0,0,0-60.3,13Q197.72,130.52,139.79,224c-25.7,41.54-39.89,86.94-43,135.73-.36,5.63-.56,11.26-.83,16.88L1,376.52c.82-9.43,1.32-18.89,2.52-28.27A388,388,0,0,1,18,282C35.56,225.5,63.9,175.09,103.48,131.14c47.73-53,105.44-90.75,173.37-112.67A366.83,366.83,0,0,1,350.12,2.78C357.85,2,365.61,1.34,373.36.62L387.61,0Z"/><path class="cls-2" d="M609.8,845.49c-5.45,7.59-10.84,15.22-16.38,22.75s-11,14.84-16.68,22.11c-7.81,10-15.8,19.84-23.74,29.73s-15.87,19.76-23.92,29.55c-4.6,5.59-9.56,10.88-14.13,16.49-23.6,29-49.22,56.28-75.06,83.31-6.29,6.58-12.84,12.93-19.24,19.42-5.35,5.43-11.59,9.23-19.16,10.64a3.28,3.28,0,0,0-.93.51H388.33c-.17-.16-.33-.41-.52-.45-8.33-1.64-14.85-6.19-20.67-12.22-30-31-58.62-63.35-86.39-96.39-8.91-10.6-17.8-21.22-26.5-32-7.72-9.54-15.33-19.19-22.71-29-15.35-20.36-30.51-40.85-45.74-61.29-.78-1-1.43-2.2-2.14-3.31,3.8-.27,7.6-.77,11.4-.78q203.85-.06,407.68,0A54.93,54.93,0,0,1,609.8,845.49Z"/><path class="cls-3" d="M387.61,0,373.36.62c-.05-.2-.1-.41-.14-.62Z"/><path class="cls-4" d="M609.8,845.49a54.93,54.93,0,0,0-7.06-.89q-203.83-.06-407.68,0c-3.8,0-7.6.51-11.4.78-4.93-6.92-9.95-13.77-14.77-20.76-30.55-44.3-59.13-89.83-84.19-137.48-8.35-15.89-16-32.13-24-48.22-.37-.75-.63-1.55-.94-2.32,1.79,0,3.59-.11,5.38-.11H232.2a11.82,11.82,0,0,0,3.21-.07,18.36,18.36,0,0,0,3.35-1.67c.85.45,1.72.85,2.53,1.34a298.11,298.11,0,0,0,313.78-4.44c4.64-3,9.19-6.06,13.79-9.09a9.72,9.72,0,0,0,2.5,1.62,12.25,12.25,0,0,0,3.21.07q78.85,0,157.7,0a35.24,35.24,0,0,1,5.24.77c-1.91,4.52-3.73,9.07-5.74,13.55-20.59,45.92-44.93,89.82-71.66,132.41q-22.58,36-47.26,70.51C611.88,842.87,610.82,844.16,609.8,845.49Z"/><path class="cls-5" d="M238.76,634.74a18.36,18.36,0,0,1-3.35,1.67,11.82,11.82,0,0,1-3.21.07H65.13c-1.79,0-3.59.07-5.38.11-3.77-8.42-7.67-16.77-11.27-25.26C34.37,578.09,22.5,544.09,13.89,509a491.23,491.23,0,0,1-11.41-63.6A417.76,417.76,0,0,1,0,397.3c0-6.23.39-12.47.63-18.7a13.63,13.63,0,0,1,.4-2.08l94.89,0c.29,8,.46,16.06.89,24.07a262.87,262.87,0,0,0,7.61,49.67q26.41,105.15,113.31,170C224.54,625.4,231.74,629.94,238.76,634.74Z"/><path class="cls-6" d="M737.51,625a35.24,35.24,0,0,0-5.24-.77q-78.85-.06-157.7,0a12.25,12.25,0,0,1-3.21-.07,9.72,9.72,0,0,1-2.5-1.62c.63-.54,1.22-1.13,1.89-1.62a293.61,293.61,0,0,0,56.72-54.29c45.41-57.24,67-122.52,65.72-195.51,0-2.27-.15-4.54-.23-6.81h94.43c.5,6.57,1.2,13.12,1.46,19.7.65,16.89.67,33.8-1,50.64-1.23,12.51-2.63,25-4.41,37.45-3.31,23.14-8.75,45.84-15.22,68.29A715.7,715.7,0,0,1,739,622.18C738.53,623.16,738,624.08,737.51,625Z"/><path class="cls-7" d="M693,364.32c.08,2.27.19,4.54.23,6.81,1.32,73-20.31,138.27-65.72,195.51a293.61,293.61,0,0,1-56.72,54.29c-.67.49-1.26,1.08-1.89,1.62-4.6,3-9.15,6.13-13.79,9.09a296,296,0,0,1-107.31,42.1,299.35,299.35,0,0,1-206.47-37.66c-.81-.49-1.68-.89-2.53-1.34-7-4.8-14.22-9.34-21-14.43Q131,555.39,104.43,450.3a262.87,262.87,0,0,1-7.61-49.67c-.43-8-.6-16-.89-24.07.27-5.62.47-11.25.83-16.88,3.14-48.79,17.33-94.19,43-135.73q57.78-93.36,162.06-128.38a284.73,284.73,0,0,1,60.3-13,289.84,289.84,0,0,1,53.5-1.09c65.4,5,123.32,28.54,173.19,71.23,43.72,37.43,74,83.86,91.2,138.84a278.55,278.55,0,0,1,11.34,55.19C692,352.62,692.44,358.48,693,364.32ZM506.34,203.07l0,0c-1.54.08-1.49,1.17-1.42,2.27a.71.71,0,0,1-.24.57l-.51.82c-.52,1.4-1,2.8-1.54,4.2-.45.73-.89,1.46-1.33,2.19-1.67,1.37-1.54,3.25-1.45,5.12a1,1,0,0,1-.09.64c-2.3,4.57-1.43,9.35-.91,14.1,0,.15.36.27.56.4l.3,1.34c-.87,1-.78,1.78.55,2.26l.28,1.36c-.47,2.18-.06,4,2.09,5.1a.49.49,0,0,1,.18.45c-.12,1.12-.24,2.24,1.37,2.36h0c-.05,1.1,0,2.14,1.48,2.17l.63.77c.7,3.17,2.06,4.48,5.14,5l0,0c.11,2.46,2.34,2.94,3.89,3.74,11.55,6,22.7,4,33.24-2.5a40.2,40.2,0,0,0,13.79-14.26c7.07-12.17,9.07-24.81,3.74-38.07a30,30,0,0,0-17.85-17.49c-10.87-4.06-20.88-1.41-30.28,4.58-.69.44-1,1.45-1.51,2.2v0c-2.6-.08-3.87,1.35-4.27,3.77L510.39,198l-.51.58-.78.85-.63.74-.59.77-.72,1a.42.42,0,0,1-.23.41Zm-97.25,18c2,4.94,5.59,8.57,9.67,11.72a26.93,26.93,0,0,0,19.11,5.69c10.87-.85,18.6-6.75,24.51-15.46a12.15,12.15,0,0,0,1-3.35c.44-.33,1.09-.56,1.3-1,2.27-4.73,4-9.62,4.06-15q-.16-5.14-.35-10.29c-.06-.66-.13-1.32-.19-2-.52-1.92-1.05-3.83-1.57-5.75-.64-1.49-1.31-3-1.93-4.49-4.08-9.93-11.48-16.32-21.85-18.33-15.28-3-31.47,7.72-35.71,22.85q-1.17,4.62-2.35,9.24l-.18,2.07c-.1,2.23-.19,4.46-.29,6.68A34.36,34.36,0,0,0,409.09,221.09ZM306.24,202.88c-.06.06-.16.12-.17.19a2.67,2.67,0,0,0,.08.48l-.51,8.11A32.4,32.4,0,0,0,309.92,229a38.74,38.74,0,0,0,23.76,21.5,27.19,27.19,0,0,0,20-.6c9.25-4,15.22-10.91,17.33-20.92a29.63,29.63,0,0,0,.23-18.25,31,31,0,0,0-6.05-14.86c-1.71-2.23-3.24-4.63-5.15-6.66-8.1-8.6-18-13.16-29.87-11.25-10.5,1.69-18,7.71-21.83,17.88Q307.3,199.35,306.24,202.88Zm-79.62,75.74c5.54,10.62,14,17.86,25.55,20.92s22.05.44,30.21-8.86c3-3.44,5.39-7.3,6-12a32.45,32.45,0,0,0-.77-21.67,17.66,17.66,0,0,0-.59-2.41,44.53,44.53,0,0,0-14.19-19.05c-8.49-6.65-18.15-9.5-28.89-7.28-13.34,2.77-22,15.27-22.31,27.35l0,.71v1.41A34.5,34.5,0,0,0,226.62,278.62Zm78.86,316.79c-.93,1.8.36,2.2,1.59,2.13,2.73-.16,5.61-.09,8.12-1a162,162,0,0,0,16.88-6.92A82,82,0,0,0,350.37,578a160.76,160.76,0,0,0,13.81-13,112.91,112.91,0,0,0,10.66-13.87c6.4-9.66,12.91-19.23,17.08-30.14.89-2.32,1.73-4.67,2.6-7,2.52-6.68,5.15-13.33,7.54-20.05,1.8-5.06,3.28-10.22,4.95-15.32a4.54,4.54,0,0,1,4.47-3.43c5.82-.36,11.63-1,17.45-1.37a110.92,110.92,0,0,0,21.44-3.6c6-1.59,12-3.34,17.77-5.49s11.41-4.81,17-7.37A93.4,93.4,0,0,0,502,447.09a193.28,193.28,0,0,0,15.88-12.74c4-3.67,7.36-8.05,10.91-12.19a106.68,106.68,0,0,0,14.64-22.32,137.6,137.6,0,0,0,7.88-19.56c2-6.27,3.67-12.69,3.84-19.21.22-8.23.69-16.5-.47-24.75-.95-6.75-2.24-13.38-4.91-19.65a89.21,89.21,0,0,0-18.07-27.35,57.59,57.59,0,0,0-8-6.59c-4.37-3.11-8.83-6.1-13.39-8.92-7.3-4.51-15.56-6.72-23.64-9.27a106.66,106.66,0,0,0-11.73-3.11c-4.08-.79-8.27-1-12.37-1.65a81.69,81.69,0,0,0-14.22-1.32c-7.55.09-15.12.31-22.66-.06s-15.05.71-22.46,1.71a232.7,232.7,0,0,0-25.16,5.13c-6.23,1.54-12.3,3.77-18.39,5.83-3.38,1.14-6.66,2.57-10,3.89-2.54,1-5.13,1.89-7.58,3.07A269.69,269.69,0,0,0,312.89,294a176.47,176.47,0,0,0-31.46,26.39,105.87,105.87,0,0,0-15.07,20.32,77.23,77.23,0,0,0-9.06,22.5c-1.67,7.66-2.69,15.43-1.48,23.39.88,5.79,1.66,11.48,4.33,16.85a34.36,34.36,0,0,0,13.85,15,49.56,49.56,0,0,0,13.62,5.13c1.86.44,4,1.29,4.27,3.77.75,6.75,1.67,13.48,2.11,20.25s2,13.64,2.47,20.57c.62,9.11,2.58,18.13,4.12,27.16,1.35,7.87,2.39,15.82,5.43,23.3,1.76,4.31,3.38,8.67,7.18,11.79,2.1,1.72,2.12,4.27,1.59,6.65-1.36,6.17-2.92,12.29-4.37,18.44-1.17,5-2.28,10-3.44,15-1,4.41-1.69,9-3.24,13.18-1.15,3.11-.87,6.11-1,9.18-.06,1.14.38,1.86,1.64,1.83l1.16.33C305.5,595.12,305.49,595.26,305.48,595.41Z"/><path class="cls-8" d="M305.52,595l-1.16-.33a53.54,53.54,0,0,1,.71-7.09c2.9-12.58,6-25.11,8.93-37.68,1.6-6.86,3.06-13.75,4.59-20.63.25-1.23.5-2.46.76-3.69.27-.79.6-1.55.8-2.35,2.13-8.92,4.22-17.85,6.37-26.76,1.37-5.65,2.83-11.28,4.25-16.92,2.35.24,4.71.68,7.07.69q32.06.07,64.12,0A349.76,349.76,0,0,1,387,522.47c-5.43,12.6-13,24-21.5,34.7-7.39,9.33-15.71,17.78-26,24.05-4.77,2.93-9.78,5.49-14.68,8.22l-5,2-.84.38-7.81,2.56-.85.31-2.79.44Z"/><path class="cls-9" d="M318.59,529.24c-1.53,6.88-3,13.77-4.59,20.63-2.95,12.57-6,25.1-8.93,37.68a53.54,53.54,0,0,0-.71,7.09c-1.26,0-1.7-.69-1.64-1.83.15-3.07-.13-6.07,1-9.18,1.55-4.22,2.22-8.77,3.24-13.18,1.16-5,2.27-10,3.44-15,1.45-6.15,3-12.27,4.37-18.44.53-2.38.51-4.93-1.59-6.65-3.8-3.12-5.42-7.48-7.18-11.79-3-7.48-4.08-15.43-5.43-23.3-1.54-9-3.5-18.05-4.12-27.16-.48-6.93-2-13.67-2.47-20.57s-1.36-13.5-2.11-20.25c-.28-2.48-2.41-3.33-4.27-3.77A49.56,49.56,0,0,1,274,418.42a34.36,34.36,0,0,1-13.85-15c-2.67-5.37-3.45-11.06-4.33-16.85-1.21-8-.19-15.73,1.48-23.39a77.23,77.23,0,0,1,9.06-22.5,105.87,105.87,0,0,1,15.07-20.32A176.47,176.47,0,0,1,312.89,294,269.69,269.69,0,0,1,342.1,278c2.45-1.18,5-2.07,7.58-3.07,3.32-1.32,6.6-2.75,10-3.89,6.09-2.06,12.16-4.29,18.39-5.83a232.7,232.7,0,0,1,25.16-5.13c7.41-1,14.87-2.09,22.46-1.71s15.11.15,22.66.06a81.69,81.69,0,0,1,14.22,1.32c4.1.67,8.29.86,12.37,1.65a106.66,106.66,0,0,1,11.73,3.11c8.08,2.55,16.34,4.76,23.64,9.27,4.56,2.82,9,5.81,13.39,8.92a57.59,57.59,0,0,1,8,6.59,89.21,89.21,0,0,1,18.07,27.35c2.67,6.27,4,12.9,4.91,19.65,1.16,8.25.69,16.52.47,24.75-.17,6.52-1.85,12.94-3.84,19.21a137.6,137.6,0,0,1-7.88,19.56,106.68,106.68,0,0,1-14.64,22.32c-3.55,4.14-6.91,8.52-10.91,12.19A193.28,193.28,0,0,1,502,447.09a93.4,93.4,0,0,1-16.79,10.24c-5.63,2.56-11.24,5.22-17,7.37s-11.78,3.9-17.77,5.49a110.92,110.92,0,0,1-21.44,3.6c-5.82.39-11.63,1-17.45,1.37a4.54,4.54,0,0,0-4.47,3.43c-1.67,5.1-3.15,10.26-4.95,15.32-2.39,6.72-5,13.37-7.54,20.05-.87,2.32-1.71,4.67-2.6,7-4.17,10.91-10.68,20.48-17.08,30.14A112.91,112.91,0,0,1,364.18,565a160.76,160.76,0,0,1-13.81,13,82,82,0,0,1-18.3,11.64,162,162,0,0,1-16.88,6.92c-2.51.88-5.39.81-8.12,1-1.23.07-2.52-.33-1.59-2.13l2.17-.32,2.79-.44.85-.31,7.81-2.56.84-.38,5-2c1.12,1.79,2.34.53,3.4,0a107.6,107.6,0,0,0,22.35-14.15,104.36,104.36,0,0,0,17.28-18.12c4.35-6,8.57-12,12.59-18.24a95.38,95.38,0,0,0,6.76-12.19c2.52-5.5,4.72-11.16,6.81-16.85,2.59-7.06,4.95-14.21,7.37-21.34,1.85-5.47,3.12-11.17,6.3-16.11l10.71-.15,1.4-.26c4.36-.4,8.73-.67,13.07-1.23,3.7-.47,7.39-1.16,11-2s7.52-2,11.28-3l1.37-.42,13.05-4.61,1.36-.49,3.49-1.43c.55.25,1.21.85,1.63.7a45,45,0,0,0,5.28-2.21,132.36,132.36,0,0,0,21.09-12.81c5-3.71,9.68-7.77,14.25-11.94,8.26-7.54,14.75-16.57,20.76-25.92a79.92,79.92,0,0,0,6.68-12.64c3.85-9.37,7.28-18.91,8.3-29.1.43-4.26,1.11-8.51,1.23-12.78.11-3.67-.65-7.37-.59-11.05.13-7.09-2-13.68-4.21-20.21a72.53,72.53,0,0,0-12.55-23.1,95.3,95.3,0,0,0-7.17-8c-2-1.91-4.32-3.38-6.38-5.17a85.72,85.72,0,0,0-16.14-10.52c-1-.55-2-.89-2.67.54a.78.78,0,0,1-.58-.34c-.66-2.23-2.62-2.86-4.5-3.48-.33-.11-.9.53-1.36.83l-7.94-3a1.12,1.12,0,0,0-.52-.21l-3-.92-1-.4a16.73,16.73,0,0,1-2.12-.35,161.76,161.76,0,0,0-38.51-6.08,205,205,0,0,0-51,3.9,234.36,234.36,0,0,0-61.64,21.92,153.48,153.48,0,0,0-22.86,14.12c-9.61,6.19-18,13.85-25.9,22a102.27,102.27,0,0,0-16.48,22.41,62,62,0,0,0-6,14.44,60.49,60.49,0,0,0-1.3,35.31c3.05,11.94,10.66,19.91,22.2,24,4,1.42,8.31,2.17,12.48,3.22a21.25,21.25,0,0,1,2.24,11.05,52.26,52.26,0,0,0,.73,8.53q1.69,13.62,3.5,27.22c1.16,8.6,2.21,17.22,3.69,25.76,1.61,9.25,3.38,18.48,7.6,27C313.42,524.92,315.94,527.09,318.59,529.24Z"/><path class="cls-10" d="M221.55,257.73v-1.41c.08-.07.23-.15.22-.2a3.09,3.09,0,0,0-.18-.51c.31-12.08,9-24.58,22.31-27.35,10.74-2.22,20.4.63,28.89,7.28A44.53,44.53,0,0,1,287,254.59a17.66,17.66,0,0,1,.59,2.41,21.05,21.05,0,0,1-3.8.73Q252.66,257.77,221.55,257.73Z"/><path class="cls-11" d="M221.55,257.73q31.11,0,62.22,0a21.05,21.05,0,0,0,3.8-.73,32.45,32.45,0,0,1,.77,21.67l-61.72-.05A34.5,34.5,0,0,1,221.55,257.73Z"/><path class="cls-12" d="M499.78,218.86a1,1,0,0,0,.09-.64q.74-2.55,1.45-5.12c.44-.73.88-1.46,1.33-2.19h62.83a37.18,37.18,0,0,1-1.74,20.9l-64.05,0Z"/><path class="cls-13" d="M499.69,231.84l64.05,0a41.07,41.07,0,0,1-17.29,22.09c-7.65,4.92-16,6.79-24.94,4.54-3.51-.89-6.74-2.87-10.09-4.36v0l-5.13-5-.63-.77-1.48-2.17h0c-.46-.78-.92-1.57-1.37-2.36a.49.49,0,0,0-.18-.45q-1-2.55-2.09-5.1c-.09-.46-.19-.91-.28-1.36-.18-.75-.36-1.5-.55-2.26l-.3-1.34C499.52,232.85,499.6,232.35,499.69,231.84Z"/><path class="cls-14" d="M565.48,210.92H502.65c.51-1.4,1-2.8,1.54-4.2l.51-.82a.71.71,0,0,0,.24-.57l1.42-2.27,0,0,.59-.78a.42.42,0,0,0,.23-.41l.72-1c.2-.26.4-.51.59-.77l.63-.74.78-.85.51-.58,1.79-1.93,4.27-3.77v0c3.3-1.67,6.47-3.68,9.92-4.94,15.64-5.71,31.26,1.33,37.4,16.75A51.55,51.55,0,0,1,565.48,210.92Z"/><path class="cls-15" d="M466.67,185.72c.52,1.92,1.05,3.83,1.57,5.75.06.65.13,1.31.19,2q.18,5.15.35,10.29H404.36c.1-2.22.19-4.45.29-6.68l.18-2.07q1.19-4.62,2.35-9.24Z"/><path class="cls-11" d="M309.92,229a32.4,32.4,0,0,1-4.28-17.29q31,0,62,0c1.26,0,2.68.4,3.59-1a29.63,29.63,0,0,1-.23,18.25Z"/><path class="cls-13" d="M309.92,229l61.1,0c-2.11,10-8.08,16.89-17.33,20.92a27.19,27.19,0,0,1-20,.6A38.74,38.74,0,0,1,309.92,229Z"/><path class="cls-14" d="M466.67,185.72l-59.49,0c4.24-15.13,20.43-25.82,35.71-22.85,10.37,2,17.77,8.4,21.85,18.33C465.36,182.74,466,184.23,466.67,185.72Z"/><path class="cls-16" d="M371.25,210.68c-.91,1.39-2.33,1-3.59,1q-31,0-62,0l.51-8.11a1.28,1.28,0,0,0,.09-.67q1.06-3.54,2.11-7.09l56.85,0A31,31,0,0,1,371.25,210.68Z"/><path class="cls-13" d="M226.62,278.62l61.72.05c-.57,4.71-2.95,8.57-6,12-8.16,9.3-18.48,12-30.21,8.86S232.16,289.24,226.62,278.62Z"/><path class="cls-17" d="M404.36,203.74h64.42c0,5.34-1.79,10.23-4.06,15-.21.44-.86.67-1.3,1-17,0-33.94,0-50.91-.13a4.54,4.54,0,0,0-3.42,1.53A34.36,34.36,0,0,1,404.36,203.74Z"/><path class="cls-13" d="M409.09,221.09a4.54,4.54,0,0,1,3.42-1.53c17,.09,33.94.1,50.91.13a12.15,12.15,0,0,1-1,3.35c-5.91,8.71-13.64,14.61-24.51,15.46a26.93,26.93,0,0,1-19.11-5.69C414.68,229.66,411.06,226,409.09,221.09Z"/><path class="cls-14" d="M365.2,195.82l-56.85,0c3.83-10.17,11.33-16.19,21.83-17.88,11.89-1.91,21.77,2.65,29.87,11.25C362,191.19,363.49,193.59,365.2,195.82Z"/><path class="cls-18" d="M565.48,210.92a51.55,51.55,0,0,0-1.72-6.82c-6.14-15.42-21.76-22.46-37.4-16.75-3.45,1.26-6.62,3.27-9.92,4.94.49-.75.82-1.76,1.51-2.2,9.4-6,19.41-8.64,30.28-4.58A30,30,0,0,1,566.08,203c5.33,13.26,3.33,25.9-3.74,38.07a40.2,40.2,0,0,1-13.79,14.26c-10.54,6.51-21.69,8.52-33.24,2.5-1.55-.8-3.78-1.28-3.89-3.74,3.35,1.49,6.58,3.47,10.09,4.36,8.9,2.25,17.29.38,24.94-4.54a41.07,41.07,0,0,0,17.29-22.09A37.18,37.18,0,0,0,565.48,210.92Z"/><path class="cls-18" d="M499.69,231.84c-.09.51-.17,1-.26,1.52-.2-.13-.54-.25-.56-.4-.52-4.75-1.39-9.53.91-14.1Z"/><path class="cls-18" d="M506.3,249.16l5.13,5C508.36,253.64,507,252.33,506.3,249.16Z"/><path class="cls-18" d="M516.45,192.27,512.18,196C512.58,193.62,513.85,192.19,516.45,192.27Z"/><path class="cls-18" d="M500.56,238.32q1.05,2.55,2.09,5.1C500.5,242.31,500.09,240.5,500.56,238.32Z"/><path class="cls-18" d="M501.32,213.1q-.72,2.57-1.45,5.12C499.78,216.35,499.65,214.47,501.32,213.1Z"/><path class="cls-18" d="M502.83,243.87c.45.79.91,1.58,1.37,2.36C502.59,246.11,502.71,245,502.83,243.87Z"/><path class="cls-18" d="M506.36,203.05l-1.42,2.27C504.87,204.22,504.82,203.13,506.36,203.05Z"/><path class="cls-18" d="M499.73,234.7c.19.76.37,1.51.55,2.26C499,236.48,498.86,235.71,499.73,234.7Z"/><path class="cls-18" d="M504.19,246.22l1.48,2.17C504.17,248.36,504.14,247.32,504.19,246.22Z"/><path class="cls-17" d="M468.43,193.44c-.06-.66-.13-1.32-.19-2C468.3,192.12,468.37,192.78,468.43,193.44Z"/><path class="cls-18" d="M307.65,595.09l-2.17.32c0-.15,0-.29,0-.44Z"/><path class="cls-17" d="M404.83,195l-.18,2.07Z"/><path class="cls-11" d="M306.24,202.88a1.28,1.28,0,0,1-.09.67,2.67,2.67,0,0,1-.08-.48C306.08,203,306.18,202.94,306.24,202.88Z"/><path class="cls-11" d="M221.59,255.61a3.09,3.09,0,0,1,.18.51c0,.05-.14.13-.22.2C221.56,256.08,221.57,255.85,221.59,255.61Z"/><path class="cls-18" d="M506.93,202.29l-.59.78Z"/><path class="cls-18" d="M507.88,200.91l-.72,1Z"/><path class="cls-18" d="M509.1,199.4l-.63.74Z"/><path class="cls-18" d="M510.39,198l-.51.58Z"/><path class="cls-18" d="M504.7,205.89l-.51.82Z"/><path class="cls-19" d="M418.48,472.29l-10.71.15h-3.06c-1,2.71-1.85,5.25-2.75,7.8q-32.07,0-64.12,0c-2.36,0-4.72-.45-7.07-.69A20.57,20.57,0,0,1,331,477c1.3-5.9,2.64-11.79,4-17.68q3.3-14.06,6.59-28.1a9,9,0,0,1,2.37,1.24,81.48,81.48,0,0,0,19.9,14.89c7.88,4.06,16.07,6.94,24.95,7.67l-.08.25,0-.26c5.73.22,11.46.65,17.19.62a63.75,63.75,0,0,0,25.75-5.83A93.42,93.42,0,0,0,457.57,432a117.48,117.48,0,0,0,19.08-23.7,21,21,0,0,0,1.27-2.91l4.07-7,5.4-10.72c.9,1.64,2.48,1.13,3.84,1.16,17.5.39,35-.8,52.52.72-.59,1.56-1.08,3.16-1.78,4.66-7.83,16.75-19.08,30.86-33,42.89A131.53,131.53,0,0,1,487.35,452c-4.23,2.39-8.54,4.64-12.82,6.95L471,460.33l-1.36.49-13.05,4.61-1.37.42c-3.76,1-7.49,2.12-11.28,3s-7.33,1.51-11,2c-4.34.56-8.71.83-13.07,1.23Z"/><path class="cls-20" d="M335,459.35c-1.32,5.89-2.66,11.78-4,17.68a20.57,20.57,0,0,0-.22,2.49c-1.42,5.64-2.88,11.27-4.25,16.92-2.15,8.91-4.24,17.84-6.37,26.76-.2.8-.53,1.56-.8,2.35-3-1.24-3.88-4.21-4.82-6.79a151.6,151.6,0,0,1-5-16.41c-1.72-7.28-3.35-14.61-3.8-22.12,1.67,0,3.34,0,5,0a84.16,84.16,0,0,1,9.27.19c4,.48,5.17.07,7.08-3.51a81.33,81.33,0,0,0,6-14.49C333.36,461.31,333.17,459.65,335,459.35Z"/><path class="cls-3" d="M305.69,480.23c.45,7.51,2.08,14.84,3.8,22.12a151.6,151.6,0,0,0,5,16.41c.94,2.58,1.79,5.55,4.82,6.79-.26,1.23-.51,2.46-.76,3.69-2.65-2.15-5.17-4.32-6.75-7.53-4.22-8.56-6-17.79-7.6-27-1.48-8.54-2.53-17.16-3.69-25.76q-1.83-13.59-3.5-27.22a52.26,52.26,0,0,1-.73-8.53,21.25,21.25,0,0,0-2.24-11.05l5.05.79-.12,1.91c.33,3.53.62,7.08,1,10.61.33,2.94.77,5.87,1.16,8.81.05,1.9-.08,3.83.16,5.71.88,6.82,1.85,13.63,2.83,20.44C304.63,473.67,305.18,477,305.69,480.23Z"/><path class="cls-18" d="M402,480.24c.9-2.55,1.79-5.09,2.75-7.8h3.06c-3.18,4.94-4.45,10.64-6.3,16.11-2.42,7.13-4.78,14.28-7.37,21.34-2.09,5.69-4.29,11.35-6.81,16.85a95.38,95.38,0,0,1-6.76,12.19c-4,6.2-8.24,12.27-12.59,18.24a104.36,104.36,0,0,1-17.28,18.12,107.6,107.6,0,0,1-22.35,14.15c-1.06.53-2.28,1.79-3.4,0,4.9-2.73,9.91-5.29,14.68-8.22,10.24-6.27,18.56-14.72,26-24.05,8.5-10.72,16.07-22.1,21.5-34.7A349.76,349.76,0,0,0,402,480.24Z"/><path class="cls-18" d="M319.94,591.4l-.84.38Z"/><path class="cls-18" d="M311.29,594.34l-.85.31Z"/><path class="cls-21" d="M489.66,268.75l7.94,3,5.86,2.65a.78.78,0,0,0,.58.34c5.12,3.24,10.39,6.25,15.32,9.77a74.6,74.6,0,0,1,19,20c-1.56,0-3.11.09-4.66.1q-21.5,0-43,0c-1.47,0-3.2-.53-4.13,1.3a59.29,59.29,0,0,0-10.94-11.82c-10.48-8.23-22.71-11.68-35.7-12.32a172.34,172.34,0,0,0-35.43,1.83c-13.89,2.18-27.45,5.43-40.22,11.41-5.29,2.47-10.35,5.45-15.52,8.2-1.64-1.46-3.65-1.51-5.69-1.51-10.15,0-20.3,0-30.44,0a15.3,15.3,0,0,1-3.61-.91,153.48,153.48,0,0,1,22.86-14.12,234.36,234.36,0,0,1,61.64-21.92,205,205,0,0,1,51-3.9,161.76,161.76,0,0,1,38.51,6.08,16.73,16.73,0,0,0,2.12.35l1,.4,3,.92.21.27Z"/><path class="cls-12" d="M309.05,300.73a15.3,15.3,0,0,0,3.61.91c10.14.07,20.29.05,30.44,0,2,0,4,.05,5.69,1.51-2.46,1.86-5,3.65-7.37,5.59-6.77,5.5-13.07,11.46-17.83,18.86l-.59.73-.1.15a.34.34,0,0,0-.32.46l-.45.76-.57.79-.1.15a.37.37,0,0,0-.35.47l-.43.71c-6.85,8.48-10.34,18.48-13,28.87q-21.56,0-43.1,0c-1.37,0-2.93.43-3.91-1.1a62,62,0,0,1,6-14.44,102.27,102.27,0,0,1,16.48-22.41C291.06,314.58,299.44,306.92,309.05,300.73Z"/><path class="cls-17" d="M260.7,359.61c1,1.53,2.54,1.09,3.91,1.1q21.56,0,43.1,0a5.45,5.45,0,0,1,0,1.07c-2.94,11.68-3.72,23.56-3.38,35.56.22,7.72,1.57,15.18,5.31,22.07a34.24,34.24,0,0,1,1.45,3.48H299.13l-5.05-.79c-4.17-1.05-8.44-1.8-12.48-3.22-11.54-4.06-19.15-12-22.2-24A60.49,60.49,0,0,1,260.7,359.61Z"/><path class="cls-18" d="M538.38,304.46a74.6,74.6,0,0,0-19-20c-4.93-3.52-10.2-6.53-15.32-9.77.64-1.43,1.64-1.09,2.67-.54a85.72,85.72,0,0,1,16.14,10.52c2.06,1.79,4.43,3.26,6.38,5.17a95.3,95.3,0,0,1,7.17,8A72.53,72.53,0,0,1,549,320.94c2.17,6.53,4.34,13.12,4.21,20.21-.06,3.68.7,7.38.59,11.05-.12,4.27-.8,8.52-1.23,12.78-1,10.19-4.45,19.73-8.3,29.1a79.92,79.92,0,0,1-6.68,12.64c-6,9.35-12.5,18.38-20.76,25.92-4.57,4.17-9.29,8.23-14.25,11.94a132.36,132.36,0,0,1-21.09,12.81,45,45,0,0,1-5.28,2.21c-.42.15-1.08-.45-1.63-.7,4.28-2.31,8.59-4.56,12.82-6.95a131.53,131.53,0,0,0,21.59-14.89c13.95-12,25.2-26.14,33-42.89.7-1.5,1.19-3.1,1.78-4.66a5.31,5.31,0,0,0,.58-.9c7.39-18.43,9.89-37.4,5.72-57A71.62,71.62,0,0,0,538.38,304.46Z"/><path class="cls-18" d="M503.46,274.37l-5.86-2.65c.46-.3,1-.94,1.36-.83C500.84,271.51,502.8,272.14,503.46,274.37Z"/><path class="cls-18" d="M455.26,465.85l1.37-.42Z"/><path class="cls-18" d="M418.48,472.29l1.4-.26Z"/><path class="cls-18" d="M469.68,460.82l1.36-.49Z"/><path class="cls-18" d="M489.66,268.75l-.31.06-.21-.27A1.12,1.12,0,0,1,489.66,268.75Z"/><path class="cls-18" d="M486.16,267.62l-1-.4Z"/><path class="cls-22" d="M487.39,387.63,482,398.35a10.71,10.71,0,0,0-1.08-.56c-1.87,2.75-3.68,5.52-5.5,8.3,0,.24,0,.48,0,.72a12.25,12.25,0,0,0-2.4,1.37c-1.43,1.27-2.72,2.7-4.1,4-2.65,2.57-5.55,4.3-9.55,4-6.54-.5-13.1.17-19.68-.64s-13.35-.61-20-.86c-5.85-.23-11.67.1-17.54-.58-7-.81-14.06-.6-21.1-.87-5.36-.2-10.72-.49-16.08-.69q-10.56-.4-21.12-.73c-9.07-.27-18.15-.44-27.22-.79a6.66,6.66,0,0,1-3.44-1.46,9.26,9.26,0,0,1-3.4-4.94c-.25-.85-1.31-1.46-2-2.19-.25-5.7-.53-11.41-.71-17.12a37.41,37.41,0,0,1,.29-5.7c.55-4.47,1.12-8.94,1.9-13.37.38-2.16.27-4.58,2.09-6.29.12.52.45,1.11.32,1.55-1.2,4-1.11,8-1,12.1s1.85,5.69,6.06,5.82c5.84.17,11.67-.13,17.54.56,6.61.78,13.34-.09,20,.76,5.55.71,11.19.6,16.8.81,7,.26,14.08.47,21.11.74,5.37.2,10.73.49,16.09.7,7.16.27,14.32.48,21.48.73,6.08.22,12.15,0,18.25.57,9.27.8,18.65.31,27.93,1,5.3.39,8.32-1.94,10.66-6.07.64-1.14,1.17-2.36,1.7-3.56,1.24-2.82,2.44-5.66,3.66-8.5.3.63.6,1.26.91,1.88a29.89,29.89,0,0,1-.64,3.42C490.65,377.55,489,382.59,487.39,387.63Z"/><path class="cls-11" d="M487.39,387.63c1.62-5,3.26-10.08,4.83-15.14a29.89,29.89,0,0,0,.64-3.42c2.14-6.21,2.81-12.67,3.24-19.17V339.14c0-1.19,0-2.37-.05-3.55a69.19,69.19,0,0,0-9.45-29.71c.93-1.83,2.66-1.3,4.13-1.3q21.5,0,43,0c1.55,0,3.1-.06,4.66-.1a71.62,71.62,0,0,1,11.67,27.19c4.17,19.56,1.67,38.53-5.72,57a5.31,5.31,0,0,1-.58.9c-17.49-1.52-35-.33-52.52-.72C489.87,388.76,488.29,389.27,487.39,387.63Z"/><path class="cls-2" d="M305.69,480.23c-.51-3.28-1.06-6.56-1.53-9.85-1-6.81-2-13.62-2.83-20.44-.24-1.88-.11-3.81-.16-5.71,5.48-.24,11-.63,16.45-.66,4.16,0,8.33.38,12.49.69a4.37,4.37,0,0,0,4.34-2c1.31-2.11,2.35-4.4,3.58-6.56,1-1.8,1-4.27,3.41-5.16a5.43,5.43,0,0,0,.1.67q-3.29,14-6.59,28.1c-1.78.3-1.59,2-1.94,3.08a81.33,81.33,0,0,1-6,14.49c-1.91,3.58-3.05,4-7.08,3.51a84.16,84.16,0,0,0-9.27-.19C309,480.22,307.36,480.23,305.69,480.23Z"/><path class="cls-23" d="M341.54,431.25a5.43,5.43,0,0,1-.1-.67c1.91-2.67,2.57-2.88,5.14-1.14a32.1,32.1,0,0,1,4.11,3.45A64.65,64.65,0,0,0,369.59,445,86.92,86.92,0,0,0,390.53,451a64.48,64.48,0,0,0,19.9.61,80.5,80.5,0,0,0,37.74-15.33,100.2,100.2,0,0,0,8.18-7c3.12-2.92,6.19-5.91,9.07-9.07,2.56-2.81,4.9-5.85,7.22-8.88a50.22,50.22,0,0,0,2.75-4.51c0-.24,0-.48,0-.72l2.51-.74a21,21,0,0,1-1.27,2.91A117.48,117.48,0,0,1,457.57,432a93.42,93.42,0,0,1-25.93,17.87,63.75,63.75,0,0,1-25.75,5.83c-5.73,0-11.46-.4-17.19-.62h.06c-8.88-.73-17.07-3.61-24.95-7.67a81.48,81.48,0,0,1-19.9-14.89A9,9,0,0,0,341.54,431.25Z"/><path class="cls-24" d="M477.92,405.35l-2.51.74c1.82-2.78,3.63-5.55,5.5-8.3a10.71,10.71,0,0,1,1.08.56Z"/><polygon class="cls-3" points="388.76 455.05 388.7 455.04 388.68 455.3 388.76 455.05"/><path class="cls-24" d="M475.39,406.81a50.22,50.22,0,0,1-2.75,4.51c-2.32,3-4.66,6.07-7.22,8.88-2.88,3.16-5.95,6.15-9.07,9.07a100.2,100.2,0,0,1-8.18,7,80.5,80.5,0,0,1-37.74,15.33,64.48,64.48,0,0,1-19.9-.61A86.92,86.92,0,0,1,369.59,445a64.65,64.65,0,0,1-18.9-12.12,32.1,32.1,0,0,0-4.11-3.45c-2.57-1.74-3.23-1.53-5.14,1.14-2.37.89-2.39,3.36-3.41,5.16-1.23,2.16-2.27,4.45-3.58,6.56a4.37,4.37,0,0,1-4.34,2c-4.16-.31-8.33-.71-12.49-.69-5.48,0-11,.42-16.45.66-.39-2.94-.83-5.87-1.16-8.81-.38-3.53-.67-7.08-1-10.62.72,0,1.44-.07,2.15,0a59.61,59.61,0,0,0,6.36.66c4.42,0,6.5-3,5.16-7.09a14.46,14.46,0,0,0-1.09-3c-2.39-4-2.9-8.49-3.85-12.88.69.73,1.75,1.34,2,2.19a9.26,9.26,0,0,0,3.4,4.94,6.66,6.66,0,0,0,3.44,1.46c9.07.35,18.15.52,27.22.79q10.56.31,21.12.73c5.36.2,10.72.49,16.08.69,7,.27,14.13.06,21.1.87,5.87.68,11.69.35,17.54.58,6.67.25,13.41,0,20,.86s13.14.14,19.68.64c4,.3,6.9-1.43,9.55-4,1.38-1.34,2.67-2.77,4.1-4A12.25,12.25,0,0,1,475.39,406.81Z"/><path class="cls-25" d="M307.74,402.47c.95,4.39,1.46,8.91,3.85,12.88a14.46,14.46,0,0,1,1.09,3c1.34,4.09-.74,7.05-5.16,7.09a59.61,59.61,0,0,1-6.36-.66c-.71-.07-1.43,0-2.15,0l.12-1.9h11.92a34.24,34.24,0,0,0-1.45-3.48c-3.74-6.89-5.09-14.35-5.31-22.07-.34-12,.44-23.88,3.38-35.56a5.45,5.45,0,0,0,0-1.07c2.63-10.39,6.12-20.39,13-28.87a18.24,18.24,0,0,1-.81,3.75c-1.35,3-3.13,5.86-4.32,8.93-1.4,3.62-2.35,7.41-3.5,11.12-.24,1.45-.49,2.89-.74,4.34-1.82,1.71-1.71,4.13-2.09,6.29-.78,4.43-1.35,8.9-1.9,13.37a37.41,37.41,0,0,0-.29,5.7C307.21,391.06,307.49,396.77,307.74,402.47Z"/><path class="cls-26" d="M312.05,355.65c1.15-3.71,2.1-7.5,3.5-11.12,1.19-3.07,3-5.91,4.32-8.93a18.24,18.24,0,0,0,.81-3.75l.43-.71a1,1,0,0,0,.35-.47l.1-.15.57-.79.45-.76a1.13,1.13,0,0,0,.32-.46l.1-.15.59-.73c4.76-7.4,11.06-13.36,17.83-18.86,2.39-1.94,4.91-3.73,7.37-5.59,5.17-2.75,10.23-5.73,15.52-8.2,12.77-6,26.33-9.23,40.22-11.41A172.34,172.34,0,0,1,440,281.74c13,.64,25.22,4.09,35.7,12.32a59.29,59.29,0,0,1,10.94,11.82,69.19,69.19,0,0,1,9.45,29.71c.09,1.18,0,2.36.05,3.55l-2-2.19c-.49-3.17-.82-6.37-1.49-9.5A62.36,62.36,0,0,0,486,309c-2.49-4.31-6.07-7.56-9.48-11.05a40.9,40.9,0,0,0-15.68-9.68,74.23,74.23,0,0,0-27.33-4.62c-4.76.13-9.53.34-14.27.73-5.21.44-10.43.94-15.58,1.75a114.25,114.25,0,0,0-20.49,4.73c-6.05,2.15-12.31,3.9-18,6.71a102.81,102.81,0,0,0-22.44,14.57,98.91,98.91,0,0,0-15.13,16.09,11.23,11.23,0,0,0-1.09,2.91c-2.13.08-2.59,2-3.37,3.33a102.79,102.79,0,0,0-9.71,20.19C313.22,355.12,312.5,355.34,312.05,355.65Z"/><path class="cls-25" d="M323.59,327.63l-.59.73Z"/><path class="cls-25" d="M322.9,328.51a1.13,1.13,0,0,1-.32.46A.34.34,0,0,1,322.9,328.51Z"/><path class="cls-25" d="M322.13,329.73l-.57.79Z"/><path class="cls-25" d="M321.46,330.67a1,1,0,0,1-.35.47A.37.37,0,0,1,321.46,330.67Z"/><path class="cls-27" d="M312.05,355.65c.45-.31,1.17-.53,1.31-.95a102.79,102.79,0,0,1,9.71-20.19c.78-1.31,1.24-3.25,3.37-3.33a34.51,34.51,0,0,1-1.32,4,6.74,6.74,0,0,0-.3,5.9c1,.06,2,.13,2.92.17,5.24.24,10.48.49,15.73.71,6.32.26,12.64.49,19,.73s12.39-.2,18.62.6c6,.77,12.14.6,18.22.84s12.39-.13,18.62.59c7,.8,14.07.59,21.11.86,5.36.2,10.72.49,16.08.7,7,.27,14.08.53,21.12.71,3.95.1,7.91,0,11.87,0,3,0,3.05,0,4-3,.75-2.35,1.38-4.73,2.07-7.1l2,2.19V349.9c-.45.47-1.14.87-1.3,1.42-.47,1.69-.76,3.42-1.06,5.15-.62,3.57-1.2,7.15-1.79,10.72-1.22,2.84-2.42,5.68-3.66,8.5-.53,1.2-1.06,2.42-1.7,3.56-2.34,4.13-5.36,6.46-10.66,6.07-9.28-.68-18.66-.19-27.93-1-6.1-.53-12.17-.35-18.25-.57-7.16-.25-14.32-.46-21.48-.73-5.36-.21-10.72-.5-16.09-.7-7-.27-14.07-.48-21.11-.74-5.61-.21-11.25-.1-16.8-.81-6.69-.85-13.42,0-20-.76-5.87-.69-11.7-.39-17.54-.56-4.21-.13-5.94-1.64-6.06-5.82s-.21-8.13,1-12.1c.13-.44-.2-1-.32-1.55C311.56,358.54,311.81,357.1,312.05,355.65Z"/><path class="cls-26" d="M492,367.19c.59-3.57,1.17-7.15,1.79-10.72.3-1.73.59-3.46,1.06-5.15.16-.55.85-.95,1.3-1.42-.43,6.5-1.1,13-3.24,19.17C492.55,368.45,492.25,367.82,492,367.19Z"/><path class="cls-28" d="M494.12,337c-.69,2.37-1.32,4.75-2.07,7.1-.93,2.95-1,3-4,3-4,0-7.92.09-11.87,0-7-.18-14.08-.44-21.12-.71-5.36-.21-10.72-.5-16.08-.7-7-.27-14.13-.06-21.11-.86-6.23-.72-12.41-.35-18.62-.59s-12.21-.07-18.22-.84c-6.23-.8-12.42-.36-18.62-.6s-12.64-.47-19-.73c-5.25-.22-10.49-.47-15.73-.71-.94,0-1.88-.11-2.92-.17a6.74,6.74,0,0,1,.3-5.9,34.51,34.51,0,0,0,1.32-4,11.23,11.23,0,0,1,1.09-2.91,98.91,98.91,0,0,1,15.13-16.09,102.81,102.81,0,0,1,22.44-14.57c5.73-2.81,12-4.56,18-6.71a114.25,114.25,0,0,1,20.49-4.73c5.15-.81,10.37-1.31,15.58-1.75,4.74-.39,9.51-.6,14.27-.73a74.23,74.23,0,0,1,27.33,4.62A40.9,40.9,0,0,1,476.49,298c3.41,3.49,7,6.74,9.48,11.05a62.36,62.36,0,0,1,6.66,18.41C493.3,330.58,493.63,333.78,494.12,337Z"/></g></g></svg>